<?xml version="1.0" encoding="UTF-8"?>
<svg xmlns="http://www.w3.org/2000/svg" xmlns:xlink="http://www.w3.org/1999/xlink" width="252pt" height="251pt" viewBox="0 0 252 251" version="1.1">
<defs>
<radialGradient id="radial0" gradientUnits="userSpaceOnUse" cx="5158.9946" cy="5188.6997" fx="5158.9946" fy="5188.6997" r="1707.25" gradientTransform="matrix(0.0526421,0,0,0.0524178,-190.314592,-196.147511)">
<stop offset="0" style="stop-color:rgb(100%,100%,100%);stop-opacity:1;"/>
<stop offset="0.219608" style="stop-color:rgb(41.568627%,74.901961%,60%);stop-opacity:1;"/>
<stop offset="0.709804" style="stop-color:rgb(0.392157%,34.117647%,30.980392%);stop-opacity:1;"/>
<stop offset="1" style="stop-color:rgb(0%,32.156863%,29.411765%);stop-opacity:1;"/>
</radialGradient>
</defs>
<g id="surface1">
<path style=" stroke:none;fill-rule:evenodd;fill:url(#radial0);" d="M 126.28125 38.246094 C 171.019531 38.246094 208.285156 71.066406 215.074219 113.792969 C 192.652344 140.109375 157.28125 157.199219 117.597656 157.199219 C 112.226562 157.199219 107.121094 156.9375 102.226562 156.414062 C 98.648438 144.566406 96.699219 131.984375 96.699219 118.878906 C 96.699219 87.683594 106.226562 64.828125 124.28125 43.226562 C 124.019531 43.488281 123.4375 44.066406 123.28125 44.222656 C 100.804688 67.5 88.804688 93.816406 88.804688 129.78125 C 88.804688 138.273438 89.542969 146.609375 91.015625 154.683594 C 84.277344 153.320312 77.964844 151.328125 71.910156 148.863281 C 71.382812 144.304688 71.066406 139.636719 71.066406 134.917969 C 71.066406 95.234375 90.804688 60.054688 120.964844 38.457031 C 122.753906 38.351562 124.542969 38.300781 126.332031 38.300781 Z M 216.074219 132.71875 C 213.757812 174.554688 182.390625 208.945312 141.753906 216.023438 C 131.335938 207.527344 122.332031 197.148438 115.121094 185.351562 C 117.175781 185.40625 119.28125 185.457031 121.332031 185.457031 C 157.492188 185.457031 183.863281 175.183594 207.234375 155.996094 C 207.390625 155.890625 207.917969 155.367188 208.234375 155.15625 C 186.546875 170.570312 163.546875 178.746094 132.28125 178.746094 C 124.859375 178.746094 117.597656 178.222656 110.542969 177.226562 C 108.175781 172.613281 106.121094 167.84375 104.332031 162.914062 C 111.910156 164.226562 119.914062 164.855469 128.492188 164.855469 C 159.335938 164.855469 187.96875 155.3125 209.917969 138.746094 C 210.917969 137.960938 213.445312 135.496094 215.96875 132.769531 Z M 92.121094 160.082031 C 93.226562 164.960938 94.542969 169.679688 96.121094 174.292969 C 89.015625 172.5625 82.171875 170.308594 75.699219 167.582031 C 74.277344 162.652344 73.171875 157.621094 72.382812 152.429688 C 78.648438 155.574219 85.171875 158.089844 92.121094 160.03125 Z M 99.910156 184.042969 C 104.121094 193.742188 109.492188 202.707031 115.859375 210.832031 C 116.703125 211.878906 119.4375 214.554688 122.492188 217.226562 C 115.226562 216.914062 108.175781 215.761719 101.492188 213.820312 C 92.59375 203.910156 85.382812 192.585938 80.171875 180.164062 C 86.542969 181.839844 93.175781 183.152344 99.964844 184.042969 Z M 101.4375 213.820312 C 101.4375 213.820312 101.4375 213.820312 101.386719 213.820312 C 101.386719 213.820312 101.386719 213.820312 101.4375 213.820312 Z M 101.070312 213.714844 Z M 101.015625 213.714844 Z M 100.964844 213.714844 C 100.964844 213.714844 100.964844 213.714844 100.910156 213.714844 C 100.910156 213.714844 100.910156 213.714844 100.964844 213.714844 Z M 100.910156 213.714844 C 100.859375 213.714844 100.804688 213.664062 100.753906 213.664062 C 100.804688 213.664062 100.859375 213.714844 100.910156 213.714844 Z M 100.753906 213.664062 C 75.859375 206.324219 55.433594 188.5 44.644531 165.378906 C 53.960938 170.988281 64.277344 175.496094 75.382812 178.851562 C 81.804688 191.90625 90.382812 203.648438 100.753906 213.664062 Z M 37.644531 143.097656 C 36.75 138.117188 36.328125 132.980469 36.328125 127.789062 C 36.328125 90.671875 59.171875 58.691406 91.59375 45.167969 C 91.382812 45.273438 91.175781 45.324219 91.015625 45.429688 C 73.332031 66.921875 62.699219 94.394531 62.699219 124.277344 C 62.699219 131.511719 63.332031 138.589844 64.542969 145.507812 C 56.539062 141.523438 49.015625 136.542969 41.59375 130.621094 C 41.855469 130.882812 42.433594 131.460938 42.59375 131.5625 C 49.75 138.222656 57.226562 143.882812 65.121094 148.601562 C 66.226562 154.210938 67.75 159.664062 69.59375 164.960938 C 57.433594 159.191406 46.644531 151.800781 37.699219 143.152344 Z M 120.859375 38.402344 L 120.859375 38.402344 "/>
<path style=" stroke:none;fill-rule:evenodd;fill:rgb(0%,32.156863%,29.411765%);fill-opacity:1;" d="M 41.910156 56.597656 L 43.960938 58.589844 C 47.804688 54.394531 51.382812 50.671875 54.75 47.472656 L 52.699219 45.480469 C 52.226562 45.953125 51.75 46.476562 51.328125 47.003906 L 51.226562 45.167969 C 51.066406 45.167969 50.382812 45.21875 49.121094 45.21875 C 48.75 45.21875 48.382812 45.21875 48.015625 45.21875 L 49.488281 43.804688 L 47.328125 41.757812 C 46.59375 42.652344 45.382812 43.855469 43.855469 45.480469 L 41.960938 43.648438 C 43.960938 41.601562 45.328125 40.238281 46.117188 39.503906 L 43.960938 37.40625 C 40.433594 41.289062 36.960938 44.851562 33.539062 48.15625 L 35.699219 50.199219 C 36.75 49.046875 38.066406 47.632812 39.699219 45.953125 L 41.59375 47.789062 C 40.277344 49.152344 39.066406 50.355469 37.960938 51.40625 L 40.066406 53.449219 L 43.59375 49.726562 L 46.171875 52.246094 L 41.804688 56.648438 Z M 48.488281 49.886719 L 45.910156 47.367188 L 47.171875 46.058594 C 47.171875 46.738281 47.121094 47.367188 47.015625 48 C 48.433594 47.894531 49.539062 47.894531 50.328125 48 Z M 27.539062 48 L 44.382812 64.199219 C 44.488281 64.355469 44.644531 64.511719 44.804688 64.667969 L 47.066406 62.308594 L 46.804688 62.046875 L 58.226562 50.304688 L 58.59375 50.671875 L 60.960938 48.261719 L 45.277344 33.320312 C 44.644531 32.742188 44.117188 32.113281 43.539062 31.535156 L 27.90625 47.683594 C 27.75 47.789062 27.644531 47.945312 27.488281 48.050781 Z M 44.804688 60.003906 L 32.011719 47.683594 L 43.433594 35.941406 L 56.226562 48.261719 Z M 78.804688 38.039062 C 79.542969 37.617188 80.066406 37.199219 80.4375 36.726562 C 81.066406 36.046875 81.332031 35.257812 81.226562 34.367188 C 81.066406 32.847656 80.121094 30.855469 78.382812 28.390625 C 78.59375 28.078125 78.804688 27.761719 79.066406 27.5 C 80.382812 28.863281 81.648438 29.859375 82.753906 30.539062 C 84.542969 31.589844 86.859375 32.269531 89.648438 32.53125 C 89.804688 31.328125 90.015625 30.070312 90.382812 28.863281 C 86.59375 29.175781 83.382812 27.867188 80.753906 24.984375 L 82.753906 21.574219 C 81.171875 21.3125 80.015625 21 79.226562 20.683594 C 78.488281 22.570312 77.542969 24.460938 76.4375 26.347656 C 75.59375 25.875 74.699219 25.613281 73.753906 25.457031 L 75.59375 22.78125 C 75.121094 22.730469 74.699219 22.675781 74.226562 22.570312 L 80.171875 19.792969 L 78.910156 17.171875 L 64.332031 24.25 L 65.59375 26.871094 C 66.960938 26.136719 68.804688 25.191406 71.226562 24.039062 C 69.332031 26.398438 66.960938 28.546875 64.015625 30.382812 C 65.382812 31.222656 66.332031 31.851562 66.804688 32.269531 C 68.59375 30.699219 70.277344 29.175781 71.753906 27.65625 C 71.855469 27.710938 71.960938 27.710938 72.121094 27.761719 C 70.171875 30.800781 67.960938 33.160156 65.488281 34.945312 C 66.699219 35.625 67.59375 36.253906 68.171875 36.777344 C 70.542969 34.523438 72.699219 31.902344 74.648438 28.914062 C 74.804688 29.019531 74.960938 29.175781 75.121094 29.28125 C 73.015625 33.425781 70.121094 36.832031 66.488281 39.558594 C 67.648438 40.132812 68.59375 40.761719 69.382812 41.445312 C 72.855469 37.878906 75.382812 34.683594 76.910156 32.007812 C 77.4375 33.109375 77.699219 33.84375 77.648438 34.316406 C 77.59375 34.785156 77.332031 35.101562 76.804688 35.363281 C 76.332031 35.625 75.753906 35.835938 75.121094 35.992188 C 76.121094 36.832031 76.960938 37.671875 77.59375 38.5625 C 77.910156 38.351562 78.277344 38.195312 78.648438 37.984375 Z M 61.382812 27.550781 L 64.488281 26.03125 C 64.171875 25.457031 63.699219 24.460938 62.960938 23.097656 L 78.699219 15.441406 L 80.171875 18.535156 L 83.277344 17.015625 C 82.226562 15.074219 81.277344 13.136719 80.4375 11.246094 L 70.910156 15.964844 L 71.332031 15.128906 C 69.277344 14.550781 68.171875 14.289062 67.910156 14.183594 C 67.277344 15.179688 66.648438 16.070312 65.960938 16.855469 C 66.699219 17.015625 67.277344 17.222656 67.855469 17.433594 L 58.59375 21.835938 L 61.382812 27.5 Z M 96.753906 6.6875 C 97.4375 11.351562 98.070312 16.542969 98.648438 22.257812 L 102.015625 21.835938 L 101.964844 21.417969 L 107.121094 20.789062 C 107.492188 23.882812 107.753906 25.613281 107.910156 26.03125 C 108.121094 26.554688 108.492188 26.921875 109.070312 27.082031 C 110.015625 27.289062 113.597656 27.027344 119.703125 26.292969 C 119.753906 26.242188 119.859375 26.242188 119.964844 26.242188 C 120.386719 26.136719 120.808594 25.980469 121.175781 25.820312 C 121.753906 25.558594 122.226562 24.984375 122.542969 24.09375 C 122.753906 23.359375 122.964844 22.414062 123.175781 21.367188 C 122.070312 21.105469 120.914062 20.738281 119.703125 20.160156 C 119.703125 21.472656 119.492188 22.363281 119.121094 22.832031 C 118.808594 23.148438 117.332031 23.515625 114.703125 23.828125 C 113.597656 23.988281 112.808594 24.039062 112.226562 24.09375 C 111.859375 24.09375 111.597656 24.09375 111.4375 24.039062 C 111.015625 23.988281 110.808594 23.726562 110.753906 23.253906 L 110.386719 20.371094 L 116.28125 19.636719 L 116.332031 20.160156 L 119.703125 19.742188 C 118.859375 14.234375 118.226562 8.992188 117.753906 4.117188 L 108.492188 5.375 C 108.332031 3.910156 108.175781 2.648438 108.175781 1.707031 L 104.804688 2.125 L 105.332031 5.796875 L 96.804688 6.738281 Z M 100.910156 12.507812 L 100.542969 9.414062 L 105.703125 8.785156 L 106.070312 11.878906 Z M 101.648438 18.429688 L 101.28125 15.335938 L 106.4375 14.707031 L 106.804688 17.800781 Z M 109.28125 11.457031 L 108.910156 8.363281 L 114.808594 7.628906 L 115.175781 10.722656 Z M 110.015625 17.382812 L 109.648438 14.289062 L 115.542969 13.554688 L 115.914062 16.648438 Z M 132.808594 24.617188 L 136.335938 25.246094 L 137.492188 18.429688 C 138.125 19.214844 138.703125 20.109375 139.125 21.105469 C 140.441406 19.84375 141.441406 18.746094 142.230469 17.75 C 142.386719 18.429688 142.546875 19.058594 142.597656 19.6875 C 143.546875 19.058594 144.546875 18.585938 145.597656 18.21875 L 144.230469 14.234375 C 144.652344 13.34375 145.125 12.402344 145.546875 11.300781 C 146.441406 12.925781 147.125 14.394531 147.546875 15.757812 C 146.019531 18.378906 144.441406 20.160156 142.753906 21.050781 C 143.808594 21.890625 144.597656 22.675781 145.125 23.464844 C 146.28125 22.570312 147.546875 21.207031 148.964844 19.425781 C 149.28125 20.476562 149.546875 21.472656 149.703125 22.46875 C 150.96875 21.574219 151.96875 20.945312 152.597656 20.632812 L 151.441406 17.328125 L 150.914062 15.914062 C 151.546875 14.339844 152.070312 12.976562 152.441406 11.878906 C 152.808594 10.777344 153.070312 9.9375 153.28125 9.519531 C 152.386719 9.308594 151.28125 8.992188 150.019531 8.523438 C 149.808594 9.621094 149.492188 10.777344 149.125 11.980469 C 148.808594 11.246094 148.492188 10.566406 148.175781 9.988281 C 147.492188 10.460938 146.597656 10.828125 145.597656 11.144531 C 146.28125 9.359375 146.652344 8.363281 146.757812 8.050781 C 145.441406 7.683594 144.386719 7.316406 143.597656 6.84375 C 143.335938 8.101562 143.019531 9.308594 142.546875 10.515625 L 141.492188 8.207031 C 140.597656 8.730469 139.808594 9.046875 139.070312 9.203125 L 139.703125 5.535156 L 154.863281 8.207031 L 152.070312 23.988281 C 152.019531 24.40625 151.863281 24.667969 151.703125 24.773438 C 151.230469 24.929688 150.28125 24.773438 148.808594 24.300781 C 149.230469 25.820312 149.386719 27.183594 149.28125 28.285156 C 151.808594 28.546875 153.386719 28.445312 154.125 27.917969 C 154.597656 27.605469 154.96875 26.554688 155.335938 24.773438 L 158.808594 5.585938 C 150.441406 4.222656 143.125 2.964844 136.859375 1.707031 C 135.753906 8.890625 134.386719 16.542969 132.808594 24.5625 Z M 139.019531 9.78125 C 139.703125 11.195312 140.28125 12.558594 140.859375 13.972656 C 140.125 15.496094 139.019531 16.855469 137.546875 18.011719 Z M 170.496094 23.515625 C 174.757812 22.570312 178.546875 21 181.914062 18.691406 C 182.441406 18.324219 183.230469 17.851562 184.230469 17.171875 C 183.335938 16.332031 182.546875 15.390625 181.863281 14.289062 C 178.230469 17.695312 174.125 19.53125 169.492188 19.6875 C 169.441406 19.6875 169.390625 19.6875 169.390625 19.6875 C 169.863281 20.683594 170.285156 21.941406 170.546875 23.515625 Z M 186.390625 40.867188 C 186.074219 38.613281 185.546875 35.3125 184.707031 31.011719 C 183.863281 31.167969 182.757812 31.222656 181.285156 31.117188 C 181.652344 32.636719 181.96875 34.15625 182.179688 35.679688 L 172.808594 31.535156 C 175.496094 30.59375 178.863281 29.019531 182.863281 26.871094 C 182.074219 25.925781 181.335938 24.773438 180.601562 23.410156 C 177.652344 26.292969 174.074219 28.285156 169.96875 29.335938 C 169.335938 29.441406 168.652344 29.492188 167.914062 29.542969 C 168.074219 30.75 168.019531 32.0625 167.757812 33.371094 C 167.914062 33.425781 168.074219 33.476562 168.230469 33.476562 C 169.703125 33.738281 174.441406 35.46875 182.390625 38.71875 C 182.496094 39.765625 182.546875 40.710938 182.496094 41.65625 C 184.019531 41.234375 185.335938 40.972656 186.390625 40.816406 Z M 186.8125 17.488281 C 186.707031 17.851562 186.496094 18.484375 186.285156 19.375 C 185.917969 20.476562 185.8125 21.835938 185.863281 23.464844 C 185.863281 27.082031 187.179688 30.332031 189.652344 33.320312 C 191.179688 32.164062 192.285156 31.433594 193.074219 31.066406 C 190.125 28.546875 188.863281 25.457031 189.179688 21.835938 C 189.335938 20.371094 189.707031 19.164062 190.390625 18.167969 C 189.390625 17.75 188.285156 17.171875 187.179688 16.4375 C 187.019531 16.753906 186.917969 17.121094 186.8125 17.433594 Z M 218.863281 49.886719 C 213.8125 44.851562 209.652344 40.554688 206.390625 36.988281 L 204.074219 39.191406 C 207.339844 42.230469 211.496094 46.53125 216.601562 52.035156 L 218.863281 49.832031 Z M 208.601562 35.941406 C 210.023438 37.304688 214.445312 41.8125 221.96875 49.519531 L 209.96875 61.050781 C 209.601562 61.417969 209.339844 61.578125 209.128906 61.628906 C 208.917969 61.628906 208.550781 61.417969 208.128906 61 L 206.601562 59.375 C 206.023438 60.738281 205.390625 61.890625 204.652344 62.730469 C 205.863281 63.832031 206.917969 64.617188 207.757812 65.035156 C 208.652344 65.507812 209.339844 65.664062 209.863281 65.457031 C 210.128906 65.296875 214.96875 60.683594 224.390625 51.667969 L 226.496094 49.726562 C 220.867188 44.117188 215.65625 38.769531 210.917969 33.632812 L 208.550781 35.886719 Z M 204.390625 42.023438 L 197.285156 48.835938 C 200.863281 52.191406 204.074219 55.496094 206.917969 58.796875 C 209.601562 55.96875 211.96875 53.710938 214.023438 51.984375 C 210.074219 48.050781 206.863281 44.746094 204.390625 42.023438 Z M 206.863281 54.238281 L 201.863281 49.097656 L 204.496094 46.582031 L 209.496094 51.71875 Z M 206.863281 54.238281 "/>
<path style=" stroke:none;fill-rule:evenodd;fill:rgb(0%,32.156863%,29.411765%);fill-opacity:1;" d="M 126.175781 33.109375 C 178.496094 33.109375 221.179688 75.625 221.179688 127.738281 C 221.179688 179.847656 178.496094 222.367188 126.175781 222.367188 C 73.855469 222.367188 31.171875 179.847656 31.171875 127.738281 C 31.171875 75.625 73.855469 33.109375 126.175781 33.109375 Z M 126.175781 29.019531 C 180.757812 29.019531 225.285156 73.371094 225.285156 127.738281 C 225.285156 182.101562 180.757812 226.453125 126.175781 226.453125 C 71.59375 226.453125 27.066406 182.101562 27.066406 127.738281 C 27.066406 73.371094 71.59375 29.019531 126.175781 29.019531 Z M 126.175781 29.019531 "/>
<path style=" stroke:none;fill-rule:evenodd;fill:rgb(0%,32.156863%,29.411765%);fill-opacity:1;" d="M 16.855469 73.109375 L 22.433594 74.054688 L 22.171875 75.886719 C 20.75 75.886719 19.484375 76.203125 18.433594 76.78125 C 17.378906 77.355469 16.589844 78.195312 16.117188 79.242188 C 15.800781 79.925781 15.695312 80.605469 15.800781 81.289062 C 15.90625 81.917969 16.222656 82.390625 16.695312 82.652344 C 17.378906 83.019531 18.378906 82.335938 19.75 80.605469 C 19.960938 80.34375 20.117188 80.136719 20.277344 79.976562 C 21.066406 79.035156 21.695312 78.300781 22.117188 77.828125 C 22.539062 77.355469 22.90625 77.09375 23.171875 76.9375 C 23.75 76.621094 24.328125 76.464844 24.960938 76.464844 C 25.589844 76.464844 26.171875 76.621094 26.800781 76.9375 C 27.960938 77.566406 28.695312 78.5625 29.011719 79.976562 C 29.328125 81.394531 29.171875 82.808594 28.488281 84.222656 C 28.222656 84.800781 27.855469 85.324219 27.488281 85.796875 C 27.066406 86.269531 26.589844 86.636719 26.066406 87.003906 L 26.589844 87.683594 L 26.011719 88.941406 L 21.644531 88.050781 L 21.855469 86.425781 C 22.960938 86.375 23.960938 86.113281 24.800781 85.585938 C 25.644531 85.0625 26.277344 84.382812 26.695312 83.542969 C 27.011719 82.914062 27.117188 82.335938 27.066406 81.761719 C 27.011719 81.234375 26.800781 80.867188 26.382812 80.660156 C 25.75 80.292969 24.644531 81.078125 23.171875 83.019531 C 22.855469 83.4375 22.589844 83.753906 22.382812 84.015625 C 21.171875 85.480469 20.171875 86.425781 19.328125 86.742188 C 18.484375 87.054688 17.484375 86.898438 16.433594 86.320312 C 15.117188 85.585938 14.273438 84.484375 13.960938 82.914062 C 13.589844 81.339844 13.855469 79.714844 14.644531 78.089844 C 14.90625 77.566406 15.222656 77.09375 15.644531 76.621094 C 16.066406 76.152344 16.589844 75.679688 17.328125 75.15625 L 16.589844 74.472656 L 17.171875 73.265625 Z M 21.484375 95.546875 L 21.589844 95.234375 C 21.855469 94.34375 21.855469 93.503906 21.589844 92.71875 C 21.328125 91.929688 20.75 91.144531 19.90625 90.253906 L 20.855469 88.996094 L 24.589844 91.984375 L 21.117188 104.09375 L 16.433594 104.355469 L 16.328125 102.730469 C 17.484375 102.519531 18.378906 102.207031 19.011719 101.683594 C 19.644531 101.210938 20.066406 100.527344 20.328125 99.636719 L 20.433594 99.324219 L 12.75 96.804688 C 11.644531 96.4375 10.960938 96.335938 10.589844 96.492188 C 10.222656 96.648438 9.960938 97.015625 9.75 97.699219 L 8.0625 97.171875 L 10.167969 89.886719 L 11.855469 90.460938 C 11.695312 91.144531 11.695312 91.667969 11.960938 91.984375 C 12.167969 92.296875 12.855469 92.664062 13.960938 93.03125 L 21.644531 95.546875 Z M 5.75 107.449219 L 7.011719 101.105469 L 8.75 101.523438 C 8.644531 102.625 9.273438 103.621094 10.589844 104.617188 L 10.695312 104.671875 L 19.75 111.378906 L 19.066406 114.789062 L 7.75 116.726562 C 6.90625 116.886719 6.328125 117.042969 6.0625 117.304688 C 5.800781 117.515625 5.589844 117.933594 5.378906 118.40625 L 3.644531 118.039062 L 5.117188 110.59375 L 6.800781 110.960938 L 6.75 111.117188 C 6.644531 111.644531 6.644531 112.0625 6.695312 112.324219 C 6.800781 112.585938 6.960938 112.742188 7.273438 112.796875 C 7.378906 112.796875 7.484375 112.847656 7.589844 112.847656 C 7.695312 112.847656 7.800781 112.847656 7.90625 112.796875 L 10.011719 112.429688 L 10.960938 107.605469 L 9.167969 106.503906 C 9.066406 106.453125 8.960938 106.398438 8.90625 106.347656 C 8.855469 106.296875 8.800781 106.296875 8.695312 106.296875 C 8.378906 106.242188 8.117188 106.296875 7.90625 106.558594 C 7.695312 106.820312 7.539062 107.1875 7.378906 107.816406 L 5.695312 107.449219 Z M 12.589844 108.8125 L 11.960938 112.0625 L 16.433594 111.539062 L 12.644531 108.863281 Z M 16.589844 124.539062 L 16.589844 124.226562 C 16.644531 123.28125 16.433594 122.496094 16.011719 121.8125 C 15.589844 121.132812 14.855469 120.503906 13.800781 119.875 L 14.433594 118.40625 L 18.75 120.34375 L 18.117188 132.980469 L 13.644531 134.449219 L 13.171875 132.925781 C 14.273438 132.457031 15.066406 131.878906 15.539062 131.25 C 16.066406 130.621094 16.328125 129.835938 16.378906 128.890625 L 16.378906 128.578125 L 8.378906 128.105469 C 7.222656 128.050781 6.539062 128.105469 6.167969 128.367188 C 5.855469 128.578125 5.644531 129.046875 5.589844 129.78125 L 3.800781 129.675781 L 4.167969 122.074219 L 5.960938 122.179688 C 5.960938 122.914062 6.0625 123.386719 6.378906 123.648438 C 6.695312 123.910156 7.378906 124.066406 8.539062 124.121094 L 16.539062 124.59375 Z M 4.222656 135.652344 L 5.960938 135.445312 C 6.0625 136.125 6.273438 136.597656 6.644531 136.808594 C 6.960938 137.015625 7.695312 137.015625 8.855469 136.910156 L 14.328125 136.179688 C 15.484375 136.019531 16.171875 135.8125 16.433594 135.546875 C 16.695312 135.285156 16.800781 134.761719 16.75 134.082031 L 18.484375 133.871094 L 19.960938 146.609375 L 15.90625 149.285156 L 15.066406 147.972656 C 16.066406 147.03125 16.800781 146.035156 17.222656 144.984375 C 17.644531 143.9375 17.800781 142.835938 17.695312 141.683594 C 17.589844 141 17.433594 140.527344 17.222656 140.371094 C 16.960938 140.164062 16.484375 140.109375 15.695312 140.214844 L 13.644531 140.476562 L 13.75 141.210938 C 13.855469 141.996094 14.066406 142.519531 14.378906 142.785156 C 14.695312 143.046875 15.328125 143.097656 16.222656 143.046875 L 16.433594 144.671875 L 9.960938 145.507812 L 9.75 143.882812 C 10.589844 143.675781 11.167969 143.359375 11.539062 142.992188 C 11.90625 142.625 12.011719 142.101562 11.960938 141.472656 L 11.855469 140.738281 L 8.484375 141.160156 C 7.695312 141.261719 7.222656 141.421875 7.0625 141.683594 C 6.855469 141.945312 6.800781 142.417969 6.90625 143.152344 C 7.0625 144.355469 7.539062 145.457031 8.328125 146.503906 C 9.167969 147.554688 10.222656 148.394531 11.539062 149.023438 L 10.960938 150.59375 L 5.800781 148.917969 L 4.328125 135.863281 Z M 14.644531 178.277344 L 15.539062 177.175781 C 14.855469 176.753906 14.273438 176.230469 13.800781 175.601562 C 13.328125 174.972656 12.90625 174.238281 12.589844 173.398438 C 12.222656 172.402344 12.011719 171.460938 12.011719 170.621094 C 12.011719 169.730469 12.167969 168.839844 12.539062 168 C 12.90625 167.109375 13.484375 166.269531 14.273438 165.484375 C 15.066406 164.699219 15.960938 164.121094 16.960938 163.648438 C 18.011719 163.175781 19.011719 162.914062 19.960938 162.863281 C 20.90625 162.808594 21.800781 163.019531 22.75 163.386719 C 23.644531 163.753906 24.433594 164.332031 25.117188 165.117188 C 25.800781 165.902344 26.382812 166.792969 26.800781 167.84375 C 27.011719 168.367188 27.171875 168.945312 27.277344 169.519531 C 27.382812 170.097656 27.382812 170.726562 27.382812 171.40625 L 28.066406 171.460938 L 28.59375 172.769531 L 24.589844 176.179688 L 23.433594 174.816406 C 24.328125 173.609375 24.90625 172.507812 25.171875 171.511719 C 25.433594 170.515625 25.382812 169.574219 25.011719 168.683594 C 24.539062 167.527344 23.75 166.792969 22.644531 166.585938 C 21.539062 166.375 20.171875 166.636719 18.484375 167.371094 C 16.855469 168.105469 15.75 168.996094 15.171875 169.941406 C 14.589844 170.9375 14.484375 171.984375 14.960938 173.191406 C 15.328125 174.082031 15.800781 174.710938 16.433594 175.078125 C 17.066406 175.445312 17.695312 175.496094 18.378906 175.183594 C 18.855469 174.972656 19.171875 174.660156 19.277344 174.292969 C 19.378906 173.925781 19.328125 173.398438 19.117188 172.769531 L 20.644531 172.035156 L 23.277344 178.746094 L 21.695312 179.429688 C 21.328125 178.851562 20.960938 178.484375 20.589844 178.378906 C 20.222656 178.277344 19.695312 178.378906 19.066406 178.695312 L 15.539062 180.320312 L 14.695312 178.222656 Z M 17.484375 184.410156 L 18.90625 183.308594 C 19.328125 183.886719 19.695312 184.148438 20.066406 184.199219 C 20.433594 184.199219 21.117188 183.886719 22.066406 183.152344 L 26.589844 179.742188 C 27.539062 179.0625 28.066406 178.484375 28.171875 178.117188 C 28.277344 177.75 28.171875 177.226562 27.800781 176.652344 L 29.222656 175.550781 L 33.800781 182.574219 C 34.90625 184.253906 35.433594 185.71875 35.488281 186.976562 C 35.488281 188.238281 34.960938 189.234375 33.90625 190.070312 C 33.117188 190.648438 32.328125 190.910156 31.488281 190.859375 C 30.695312 190.804688 29.800781 190.386719 28.90625 189.597656 L 27.539062 194.265625 C 27.382812 194.894531 27.277344 195.367188 27.328125 195.785156 C 27.382812 196.207031 27.488281 196.625 27.75 197.097656 L 26.328125 198.144531 L 23.75 194.160156 L 26.328125 186.453125 L 25.589844 185.351562 L 24.117188 186.453125 C 23.171875 187.136719 22.644531 187.710938 22.539062 188.078125 C 22.433594 188.5 22.539062 188.96875 22.90625 189.546875 L 21.433594 190.648438 L 17.328125 184.410156 Z M 27.277344 184.148438 C 27.328125 184.253906 27.382812 184.304688 27.433594 184.410156 C 27.488281 184.515625 27.589844 184.617188 27.695312 184.777344 C 28.433594 185.878906 29.117188 186.609375 29.800781 186.925781 C 30.488281 187.242188 31.117188 187.1875 31.75 186.714844 C 32.328125 186.296875 32.59375 185.71875 32.644531 185.039062 C 32.699219 184.304688 32.433594 183.570312 31.90625 182.785156 C 31.539062 182.261719 31.222656 181.945312 30.90625 181.894531 C 30.59375 181.839844 30.117188 182.050781 29.488281 182.523438 L 27.328125 184.148438 Z M 43.066406 195.628906 L 41.699219 196.835938 C 41.277344 196.308594 40.855469 196.046875 40.488281 196.101562 C 40.117188 196.101562 39.488281 196.519531 38.59375 197.304688 L 34.328125 201.132812 C 33.433594 201.917969 32.960938 202.496094 32.90625 202.914062 C 32.800781 203.335938 32.960938 203.808594 33.382812 204.332031 L 32.011719 205.535156 L 27.433594 199.71875 L 28.800781 198.511719 C 29.222656 199.035156 29.644531 199.296875 30.011719 199.246094 C 30.382812 199.246094 31.011719 198.828125 31.90625 198.039062 L 36.171875 194.214844 C 37.066406 193.425781 37.539062 192.796875 37.644531 192.429688 C 37.75 192.011719 37.59375 191.539062 37.171875 191.015625 L 38.539062 189.808594 L 43.117188 195.628906 Z M 45.171875 203.335938 L 40.117188 208.945312 C 39.59375 209.574219 39.328125 209.992188 39.328125 210.359375 C 39.328125 210.675781 39.59375 211.09375 40.066406 211.617188 C 41.117188 212.71875 42.277344 213.191406 43.539062 213.085938 C 44.804688 212.980469 46.066406 212.246094 47.222656 210.9375 C 48.433594 209.625 49.015625 208.261719 49.121094 206.898438 C 49.171875 205.535156 48.699219 204.277344 47.644531 203.230469 C 47.171875 202.707031 46.75 202.496094 46.433594 202.496094 C 46.117188 202.496094 45.699219 202.8125 45.117188 203.441406 Z M 33.75 207.632812 L 34.960938 206.269531 C 35.433594 206.742188 35.90625 206.953125 36.277344 206.898438 C 36.644531 206.847656 37.222656 206.375 38.011719 205.484375 L 41.855469 201.238281 C 42.644531 200.347656 43.066406 199.71875 43.117188 199.296875 C 43.171875 198.878906 42.960938 198.40625 42.488281 197.933594 L 43.699219 196.570312 L 48.910156 201.972656 C 50.910156 204.015625 51.960938 206.0625 52.171875 208.105469 C 52.382812 210.148438 51.644531 212.089844 50.066406 213.871094 C 48.433594 215.65625 46.699219 216.492188 44.75 216.390625 C 42.855469 216.230469 40.910156 215.183594 38.90625 213.085938 L 33.699219 207.6875 Z M 71.015625 230.597656 L 72.171875 232.328125 C 70.804688 233.324219 69.488281 233.847656 68.121094 234.003906 C 66.75 234.109375 65.488281 233.792969 64.226562 233.058594 C 63.382812 232.535156 62.644531 231.855469 62.015625 231.066406 C 61.382812 230.230469 60.910156 229.339844 60.644531 228.445312 C 60.332031 227.347656 60.226562 226.296875 60.382812 225.25 C 60.539062 224.199219 60.855469 223.097656 61.488281 222 C 62.066406 220.898438 62.75 220.007812 63.542969 219.378906 C 64.332031 218.75 65.226562 218.277344 66.277344 218.015625 C 67.121094 217.804688 67.960938 217.753906 68.855469 217.910156 C 69.75 218.066406 70.542969 218.382812 71.332031 218.851562 C 71.804688 219.167969 72.226562 219.535156 72.648438 219.953125 C 73.015625 220.375 73.382812 220.898438 73.699219 221.421875 L 74.332031 220.792969 L 75.4375 221.472656 L 74.332031 227.347656 L 72.699219 226.980469 C 72.855469 225.511719 72.753906 224.253906 72.4375 223.203125 C 72.121094 222.101562 71.542969 221.371094 70.804688 220.898438 C 69.855469 220.320312 68.855469 220.320312 67.804688 220.898438 C 66.75 221.472656 65.804688 222.574219 64.910156 224.148438 C 64.066406 225.773438 63.644531 227.1875 63.75 228.445312 C 63.855469 229.703125 64.4375 230.648438 65.4375 231.332031 C 66.171875 231.800781 67.015625 231.960938 68.015625 231.855469 C 69.015625 231.75 70.015625 231.382812 70.960938 230.753906 Z M 78.59375 231.539062 C 77.964844 233.375 77.753906 234.894531 78.015625 236.152344 C 78.277344 237.410156 78.964844 238.25 80.066406 238.722656 C 81.171875 239.195312 82.226562 239.035156 83.226562 238.304688 C 84.171875 237.570312 85.015625 236.257812 85.648438 234.476562 C 86.277344 232.640625 86.488281 231.121094 86.226562 229.863281 C 85.964844 228.605469 85.277344 227.765625 84.171875 227.292969 C 83.070312 226.820312 82.015625 226.980469 81.066406 227.710938 C 80.121094 228.445312 79.277344 229.757812 78.648438 231.539062 Z M 74.859375 229.96875 C 75.648438 227.710938 76.960938 226.191406 78.804688 225.355469 C 80.648438 224.515625 82.648438 224.566406 84.804688 225.457031 C 86.964844 226.351562 88.488281 227.765625 89.332031 229.703125 C 90.175781 231.644531 90.226562 233.742188 89.382812 235.996094 C 88.59375 238.25 87.277344 239.769531 85.4375 240.609375 C 83.59375 241.449219 81.59375 241.394531 79.4375 240.503906 C 77.277344 239.613281 75.753906 238.199219 74.910156 236.257812 C 74.066406 234.320312 74.066406 232.222656 74.859375 229.96875 Z M 89.226562 243.859375 L 89.648438 242.023438 C 90.28125 242.183594 90.753906 242.078125 91.070312 241.816406 C 91.382812 241.554688 91.648438 240.820312 91.910156 239.613281 L 93.175781 233.847656 C 93.4375 232.640625 93.488281 231.855469 93.332031 231.488281 C 93.175781 231.121094 92.804688 230.804688 92.121094 230.648438 L 92.542969 228.8125 L 100.332031 230.753906 C 102.175781 231.226562 103.542969 231.90625 104.332031 232.796875 C 105.121094 233.6875 105.386719 234.84375 105.070312 236.207031 C 104.859375 237.203125 104.4375 237.988281 103.753906 238.511719 C 103.121094 239.035156 102.226562 239.351562 101.070312 239.402344 L 102.964844 243.859375 C 103.226562 244.4375 103.492188 244.855469 103.753906 245.117188 C 104.015625 245.378906 104.386719 245.640625 104.859375 245.800781 L 104.492188 247.582031 L 100.070312 246.480469 L 97.175781 238.878906 L 95.964844 238.566406 L 95.542969 240.453125 C 95.28125 241.65625 95.226562 242.445312 95.386719 242.8125 C 95.542969 243.179688 95.964844 243.492188 96.59375 243.648438 L 96.175781 245.484375 L 89.226562 243.753906 Z M 96.386719 236.625 C 96.488281 236.675781 96.542969 236.675781 96.648438 236.730469 C 96.753906 236.78125 96.910156 236.78125 97.070312 236.835938 C 98.28125 237.148438 99.226562 237.148438 99.964844 236.941406 C 100.648438 236.675781 101.070312 236.207031 101.28125 235.367188 C 101.4375 234.632812 101.28125 234.003906 100.859375 233.480469 C 100.4375 232.957031 99.804688 232.535156 98.910156 232.328125 C 98.332031 232.167969 97.859375 232.222656 97.648438 232.378906 C 97.386719 232.589844 97.175781 233.058594 97.015625 233.847656 L 96.4375 236.625 Z M 112.597656 240.398438 C 112.703125 240.398438 112.753906 240.453125 112.859375 240.453125 C 112.964844 240.453125 113.070312 240.503906 113.28125 240.503906 C 114.4375 240.660156 115.386719 240.558594 116.015625 240.191406 C 116.648438 239.824219 117.019531 239.195312 117.121094 238.304688 C 117.226562 237.515625 117.019531 236.835938 116.597656 236.3125 C 116.175781 235.785156 115.492188 235.472656 114.648438 235.367188 C 114.070312 235.316406 113.703125 235.367188 113.4375 235.578125 C 113.226562 235.785156 113.070312 236.3125 112.964844 237.097656 Z M 115.753906 233.636719 C 117.597656 233.898438 118.964844 234.476562 119.808594 235.367188 C 120.648438 236.257812 121.019531 237.464844 120.808594 238.984375 C 120.648438 240.453125 120.070312 241.5 119.070312 242.128906 C 118.070312 242.757812 116.703125 242.917969 114.914062 242.707031 L 112.332031 242.339844 L 112.175781 243.914062 C 112.015625 245.117188 112.070312 245.90625 112.28125 246.273438 C 112.492188 246.636719 112.914062 246.847656 113.542969 246.953125 L 113.332031 248.839844 L 106.28125 247.898438 L 106.492188 246.007812 C 107.175781 246.0625 107.597656 245.957031 107.859375 245.640625 C 108.121094 245.328125 108.332031 244.59375 108.492188 243.386719 L 109.175781 237.515625 C 109.332031 236.3125 109.28125 235.523438 109.121094 235.15625 C 108.910156 234.789062 108.492188 234.582031 107.859375 234.421875 L 108.070312 232.535156 L 115.859375 233.585938 Z M 125.964844 241.816406 C 126.019531 243.753906 126.386719 245.277344 127.070312 246.324219 C 127.753906 247.371094 128.703125 247.84375 129.914062 247.792969 C 131.125 247.738281 132.019531 247.164062 132.648438 246.113281 C 133.28125 245.011719 133.542969 243.492188 133.492188 241.554688 C 133.441406 239.613281 133.070312 238.09375 132.335938 237.042969 C 131.648438 235.996094 130.703125 235.523438 129.492188 235.578125 C 128.28125 235.628906 127.386719 236.207031 126.753906 237.253906 C 126.125 238.355469 125.859375 239.875 125.914062 241.816406 Z M 121.964844 241.972656 C 121.914062 239.5625 122.542969 237.570312 123.914062 236.046875 C 125.28125 234.527344 127.125 233.6875 129.4375 233.636719 C 131.753906 233.53125 133.648438 234.214844 135.175781 235.628906 C 136.648438 237.042969 137.441406 238.984375 137.546875 241.394531 C 137.597656 243.808594 136.964844 245.800781 135.597656 247.320312 C 134.230469 248.839844 132.335938 249.679688 130.019531 249.730469 C 127.703125 249.835938 125.808594 249.15625 124.332031 247.738281 C 122.859375 246.324219 122.070312 244.382812 122.019531 241.972656 Z M 140.386719 248.945312 L 140.070312 247.109375 C 140.703125 246.953125 141.125 246.691406 141.28125 246.324219 C 141.441406 245.957031 141.441406 245.171875 141.230469 243.964844 L 140.28125 238.144531 C 140.070312 236.941406 139.859375 236.207031 139.546875 235.890625 C 139.28125 235.628906 138.808594 235.523438 138.125 235.628906 L 137.808594 233.792969 L 145.703125 232.328125 C 147.597656 231.960938 149.070312 232.0625 150.125 232.535156 C 151.175781 233.058594 151.808594 234.003906 152.070312 235.367188 C 152.230469 236.414062 152.125 237.253906 151.703125 238.039062 C 151.28125 238.773438 150.597656 239.457031 149.597656 239.980469 L 152.96875 243.285156 C 153.386719 243.703125 153.808594 243.964844 154.175781 244.121094 C 154.546875 244.28125 154.96875 244.332031 155.441406 244.28125 L 155.757812 246.113281 L 151.28125 246.953125 L 145.859375 241.1875 L 144.652344 241.394531 L 144.964844 243.285156 C 145.175781 244.488281 145.386719 245.222656 145.703125 245.484375 C 145.964844 245.746094 146.441406 245.851562 147.125 245.746094 L 147.441406 247.632812 L 140.441406 248.945312 Z M 144.335938 239.300781 C 144.441406 239.300781 144.546875 239.300781 144.597656 239.246094 C 144.703125 239.246094 144.859375 239.195312 145.019531 239.195312 C 146.28125 238.984375 147.175781 238.566406 147.703125 238.09375 C 148.230469 237.570312 148.441406 236.941406 148.335938 236.101562 C 148.230469 235.367188 147.863281 234.84375 147.28125 234.527344 C 146.703125 234.214844 145.964844 234.109375 145.070312 234.265625 C 144.441406 234.371094 144.070312 234.582031 143.914062 234.84375 C 143.757812 235.105469 143.703125 235.679688 143.859375 236.46875 L 144.335938 239.246094 Z M 162.597656 244.015625 L 156.863281 246.113281 L 156.28125 244.332031 C 157.175781 243.859375 157.703125 242.757812 157.808594 241.082031 L 157.808594 240.976562 L 158.492188 229.179688 L 161.546875 228.027344 L 168.914062 237.410156 C 169.492188 238.09375 169.914062 238.511719 170.230469 238.667969 C 170.546875 238.828125 170.96875 238.828125 171.496094 238.722656 L 172.074219 240.503906 L 165.335938 242.96875 L 164.757812 241.238281 L 164.914062 241.1875 C 165.386719 241.027344 165.757812 240.820312 165.914062 240.609375 C 166.074219 240.398438 166.125 240.136719 166.019531 239.824219 C 165.96875 239.71875 165.96875 239.613281 165.863281 239.507812 C 165.808594 239.402344 165.757812 239.300781 165.652344 239.246094 L 164.285156 237.515625 L 159.914062 239.140625 L 159.96875 241.34375 C 159.96875 241.5 159.96875 241.554688 160.019531 241.65625 C 160.019531 241.710938 160.074219 241.816406 160.074219 241.867188 C 160.179688 242.183594 160.386719 242.390625 160.703125 242.496094 C 161.019531 242.550781 161.441406 242.496094 161.96875 242.339844 L 162.546875 244.070312 Z M 160.179688 237.042969 L 163.125 235.945312 L 160.386719 232.117188 L 160.179688 236.992188 Z M 172.230469 226.035156 L 171.96875 226.140625 C 171.179688 226.507812 170.597656 227.03125 170.179688 227.765625 C 169.808594 228.5 169.546875 229.496094 169.492188 230.753906 L 167.96875 230.804688 L 167.703125 225.773438 L 178.601562 220.84375 L 181.8125 224.515625 L 180.707031 225.617188 C 179.808594 224.777344 179.019531 224.253906 178.230469 224.09375 C 177.496094 223.886719 176.703125 223.992188 175.914062 224.304688 L 175.652344 224.410156 L 178.757812 232.328125 C 179.179688 233.425781 179.601562 234.109375 179.914062 234.320312 C 180.230469 234.527344 180.707031 234.527344 181.335938 234.265625 L 182.019531 235.996094 L 175.441406 238.984375 L 174.757812 237.253906 C 175.335938 236.941406 175.703125 236.625 175.808594 236.207031 C 175.914062 235.785156 175.703125 235.050781 175.285156 233.898438 L 172.179688 225.984375 Z M 188.546875 214.449219 L 189.496094 216.023438 C 188.96875 216.390625 188.652344 216.808594 188.652344 217.226562 C 188.601562 217.648438 188.917969 218.382812 189.496094 219.429688 L 192.441406 224.460938 C 193.023438 225.511719 193.546875 226.085938 193.863281 226.246094 C 194.230469 226.402344 194.707031 226.296875 195.230469 225.929688 L 196.179688 227.554688 L 190.179688 231.59375 L 189.230469 229.96875 C 189.757812 229.601562 190.074219 229.179688 190.074219 228.761719 C 190.125 228.34375 189.8125 227.609375 189.179688 226.613281 L 186.230469 221.578125 C 185.601562 220.53125 185.125 219.902344 184.757812 219.796875 C 184.390625 219.640625 183.96875 219.746094 183.390625 220.109375 L 182.441406 218.539062 L 188.441406 214.5 Z M 197.234375 217.4375 C 198.390625 218.957031 199.546875 219.902344 200.652344 220.320312 C 201.8125 220.6875 202.8125 220.476562 203.757812 219.691406 C 204.707031 218.90625 205.074219 217.855469 204.96875 216.546875 C 204.863281 215.289062 204.234375 213.871094 203.074219 212.351562 C 201.917969 210.832031 200.8125 209.886719 199.652344 209.519531 C 198.496094 209.152344 197.496094 209.363281 196.546875 210.148438 C 195.601562 210.9375 195.230469 211.984375 195.335938 213.242188 C 195.441406 214.5 196.074219 215.917969 197.234375 217.4375 Z M 194.128906 220.164062 C 192.707031 218.277344 192.125 216.285156 192.335938 214.1875 C 192.601562 212.089844 193.601562 210.253906 195.390625 208.683594 C 197.179688 207.109375 199.074219 206.429688 201.074219 206.585938 C 203.074219 206.742188 204.757812 207.792969 206.179688 209.679688 C 207.601562 211.566406 208.179688 213.558594 207.917969 215.65625 C 207.652344 217.804688 206.652344 219.640625 204.863281 221.210938 C 203.074219 222.785156 201.179688 223.464844 199.179688 223.257812 C 197.179688 223.046875 195.496094 222.050781 194.074219 220.164062 Z M 213.023438 214.132812 L 211.707031 212.875 C 212.128906 212.300781 212.285156 211.828125 212.234375 211.460938 C 212.179688 211.042969 211.707031 210.464844 210.863281 209.625 L 206.757812 205.640625 C 205.917969 204.804688 205.285156 204.382812 204.917969 204.332031 C 204.546875 204.277344 204.128906 204.539062 203.652344 205.066406 L 202.339844 203.808594 L 206.445312 198.929688 L 215.863281 200.871094 L 213.023438 198.144531 C 212.179688 197.304688 211.550781 196.886719 211.179688 196.886719 C 210.8125 196.835938 210.390625 197.097656 209.917969 197.621094 L 208.652344 196.414062 L 212.234375 192.167969 L 213.550781 193.425781 C 213.128906 193.949219 212.96875 194.421875 213.023438 194.84375 C 213.074219 195.261719 213.550781 195.839844 214.445312 196.675781 L 221.867188 203.808594 L 220.074219 205.902344 L 207.339844 203.335938 L 212.285156 208.105469 C 213.128906 208.945312 213.757812 209.363281 214.128906 209.417969 C 214.496094 209.46875 214.917969 209.207031 215.390625 208.683594 L 216.65625 209.941406 L 213.074219 214.1875 Z M 227.601562 181.894531 C 229.179688 182.835938 230.601562 183.257812 231.761719 183.152344 C 232.917969 183.046875 233.8125 182.46875 234.390625 181.316406 C 234.972656 180.214844 234.972656 179.0625 234.445312 177.910156 C 233.867188 176.753906 232.8125 175.757812 231.234375 174.761719 C 229.65625 173.820312 228.234375 173.398438 227.074219 173.503906 C 225.867188 173.609375 225.023438 174.238281 224.445312 175.339844 C 223.867188 176.441406 223.867188 177.59375 224.390625 178.695312 C 224.917969 179.796875 226.023438 180.84375 227.601562 181.789062 Z M 225.65625 185.667969 C 223.707031 184.515625 222.445312 182.890625 221.917969 180.84375 C 221.390625 178.800781 221.707031 176.652344 222.8125 174.5 C 223.917969 172.300781 225.445312 170.9375 227.339844 170.308594 C 229.234375 169.679688 231.179688 169.941406 233.128906 171.09375 C 235.078125 172.246094 236.339844 173.871094 236.867188 175.96875 C 237.390625 178.011719 237.078125 180.164062 235.972656 182.363281 C 234.867188 184.566406 233.339844 185.929688 231.445312 186.558594 C 229.550781 187.1875 227.601562 186.925781 225.65625 185.71875 Z M 233.65625 163.753906 L 233.8125 163.230469 C 234.023438 162.496094 234.078125 161.917969 233.867188 161.550781 C 233.65625 161.183594 233.128906 160.816406 232.285156 160.503906 L 232.761719 158.984375 L 239.128906 161.183594 L 238.65625 162.707031 C 237.8125 162.546875 237.183594 162.546875 236.707031 162.757812 C 236.234375 162.96875 235.917969 163.335938 235.761719 163.964844 L 235.601562 164.488281 L 237.867188 165.273438 C 238.972656 165.640625 239.65625 165.746094 240.023438 165.640625 C 240.394531 165.484375 240.707031 165.117188 240.917969 164.433594 L 242.601562 165.011719 L 240.394531 172.246094 L 238.707031 171.671875 C 238.867188 170.988281 238.867188 170.464844 238.65625 170.148438 C 238.445312 169.835938 237.761719 169.46875 236.707031 169.101562 L 231.445312 167.265625 C 230.339844 166.898438 229.65625 166.742188 229.285156 166.898438 C 228.917969 167.003906 228.601562 167.421875 228.390625 168.105469 L 226.707031 167.527344 L 230.285156 155.734375 L 234.8125 155.101562 L 235.078125 156.675781 C 233.917969 157.042969 232.917969 157.566406 232.183594 158.25 C 231.445312 158.929688 230.867188 159.820312 230.550781 160.871094 C 230.339844 161.550781 230.339844 162.023438 230.445312 162.285156 C 230.601562 162.601562 231.023438 162.863281 231.761719 163.125 L 233.65625 163.804688 Z M 243.550781 129.886719 L 244.5 128.050781 C 245.917969 128.941406 246.972656 129.992188 247.65625 131.25 C 248.339844 132.507812 248.65625 133.871094 248.550781 135.390625 C 248.5 136.441406 248.234375 137.4375 247.8125 138.378906 C 247.394531 139.375 246.867188 140.164062 246.183594 140.84375 C 245.394531 141.628906 244.550781 142.15625 243.601562 142.519531 C 242.65625 142.835938 241.601562 142.992188 240.394531 142.886719 C 239.234375 142.785156 238.183594 142.519531 237.289062 142.050781 C 236.390625 141.578125 235.601562 140.894531 234.917969 140.003906 C 234.390625 139.269531 233.972656 138.484375 233.707031 137.59375 C 233.445312 136.703125 233.339844 135.757812 233.390625 134.816406 C 233.445312 134.238281 233.550781 133.660156 233.707031 133.085938 C 233.917969 132.507812 234.128906 131.984375 234.496094 131.40625 L 233.707031 131.09375 L 233.8125 129.730469 L 239.183594 128.210938 L 239.601562 129.9375 C 238.339844 130.410156 237.289062 131.039062 236.550781 131.828125 C 235.8125 132.613281 235.390625 133.453125 235.339844 134.394531 C 235.285156 135.546875 235.707031 136.542969 236.65625 137.332031 C 237.601562 138.117188 238.917969 138.535156 240.65625 138.695312 C 242.394531 138.800781 243.761719 138.535156 244.761719 137.90625 C 245.761719 137.226562 246.339844 136.28125 246.394531 135.023438 C 246.445312 134.132812 246.234375 133.242188 245.707031 132.296875 C 245.183594 131.355469 244.445312 130.621094 243.5 129.9375 Z M 248.707031 125.796875 L 246.972656 125.953125 C 246.867188 125.222656 246.65625 124.800781 246.339844 124.59375 C 246.023438 124.382812 245.289062 124.328125 244.128906 124.433594 L 238.601562 124.957031 C 237.445312 125.0625 236.761719 125.273438 236.445312 125.535156 C 236.183594 125.796875 236.023438 126.320312 236.078125 127.003906 L 234.339844 127.160156 L 233.707031 119.558594 L 235.390625 119.402344 C 235.496094 120.082031 235.65625 120.554688 236.023438 120.765625 C 236.339844 120.972656 237.078125 121.027344 238.234375 120.921875 L 239.65625 120.765625 L 239.183594 115.101562 L 237.761719 115.261719 C 236.601562 115.363281 235.917969 115.574219 235.601562 115.835938 C 235.339844 116.097656 235.183594 116.625 235.234375 117.304688 L 233.550781 117.460938 L 232.917969 109.859375 L 234.65625 109.703125 C 234.761719 110.382812 234.917969 110.855469 235.285156 111.066406 C 235.601562 111.277344 236.339844 111.328125 237.496094 111.222656 L 243.023438 110.699219 C 244.183594 110.59375 244.867188 110.382812 245.183594 110.121094 C 245.445312 109.859375 245.601562 109.335938 245.550781 108.65625 L 247.289062 108.496094 L 247.917969 116.097656 L 246.183594 116.257812 C 246.078125 115.574219 245.917969 115.101562 245.550781 114.894531 C 245.234375 114.683594 244.5 114.632812 243.339844 114.734375 L 240.917969 114.945312 L 241.394531 120.609375 L 243.8125 120.398438 C 244.972656 120.292969 245.65625 120.082031 245.917969 119.820312 C 246.183594 119.558594 246.339844 119.035156 246.289062 118.351562 L 248.023438 118.195312 L 248.65625 125.796875 Z M 231.078125 102.207031 L 232.761719 101.734375 C 232.917969 102.414062 233.183594 102.835938 233.550781 102.992188 C 233.917969 103.148438 234.65625 103.097656 235.761719 102.78125 L 241.128906 101.367188 C 242.234375 101.054688 242.917969 100.789062 243.128906 100.421875 C 243.394531 100.109375 243.445312 99.585938 243.289062 98.902344 L 245.023438 98.429688 L 246.761719 105.824219 L 245.023438 106.296875 C 244.867188 105.613281 244.601562 105.195312 244.234375 105.039062 C 243.867188 104.878906 243.128906 104.933594 242.023438 105.246094 L 236.65625 106.664062 C 235.550781 106.976562 234.867188 107.292969 234.601562 107.605469 C 234.339844 107.921875 234.339844 108.445312 234.445312 109.125 L 232.761719 109.597656 L 231.023438 102.207031 Z M 244.023438 93.609375 L 242.394531 94.289062 C 242.128906 93.660156 241.8125 93.242188 241.445312 93.136719 C 241.078125 93.03125 240.339844 93.1875 239.289062 93.660156 L 234.128906 95.863281 C 233.078125 96.335938 232.445312 96.703125 232.234375 97.070312 C 232.023438 97.433594 232.023438 97.90625 232.285156 98.589844 L 230.65625 99.269531 L 228.390625 93.1875 L 234.128906 84.957031 L 230.601562 86.476562 C 229.550781 86.949219 228.917969 87.316406 228.707031 87.683594 C 228.496094 88.050781 228.550781 88.523438 228.761719 89.203125 L 227.179688 89.886719 L 225.179688 84.589844 L 226.8125 83.910156 C 227.074219 84.539062 227.390625 84.90625 227.761719 85.011719 C 228.128906 85.117188 228.867188 84.957031 229.917969 84.484375 L 239.183594 80.503906 L 240.183594 83.175781 L 232.445312 94.289062 L 238.65625 91.617188 C 239.707031 91.144531 240.339844 90.726562 240.550781 90.410156 C 240.761719 90.042969 240.707031 89.570312 240.496094 88.890625 L 242.078125 88.207031 L 244.078125 93.503906 Z M 235.023438 71.746094 L 237.972656 77.410156 L 236.445312 78.351562 C 235.867188 77.460938 234.761719 77.09375 233.183594 77.304688 L 233.078125 77.304688 L 222.128906 78.613281 L 220.550781 75.574219 L 227.867188 66.136719 C 228.390625 65.402344 228.707031 64.878906 228.8125 64.511719 C 228.867188 64.144531 228.8125 63.726562 228.601562 63.203125 L 230.128906 62.308594 L 233.601562 68.96875 L 232.078125 69.859375 L 232.023438 69.703125 C 231.761719 69.230469 231.550781 68.914062 231.339844 68.757812 C 231.128906 68.601562 230.867188 68.601562 230.601562 68.757812 C 230.496094 68.8125 230.445312 68.863281 230.339844 68.96875 C 230.234375 69.019531 230.179688 69.125 230.128906 69.230469 L 228.761719 70.960938 L 230.972656 75.257812 L 233.023438 74.789062 C 233.128906 74.734375 233.234375 74.734375 233.285156 74.683594 C 233.339844 74.683594 233.390625 74.628906 233.445312 74.578125 C 233.761719 74.421875 233.867188 74.160156 233.917969 73.84375 C 233.917969 73.53125 233.8125 73.058594 233.550781 72.535156 L 235.078125 71.640625 Z M 229.023438 75.523438 L 227.550781 72.636719 L 224.496094 76.203125 L 229.023438 75.574219 Z M 229.023438 75.523438 "/>
</g>
</svg>