<svg xmlns="http://www.w3.org/2000/svg" xmlns:xlink="http://www.w3.org/1999/xlink" width="57.423" height="57.423"><defs><radialGradient cx="0" cy="0" r="1" fx="0" fy="0" id="e" gradientUnits="userSpaceOnUse" gradientTransform="matrix(20.2107 0 0 -20.2107 351.766 741.097)"><stop offset="0" stop-color="#f8fbfb"/><stop offset="1" stop-color="#00706b"/></radialGradient><clipPath id="D"><path d="M-.078.746h.192v.18h-.192v-.18z"/></clipPath><clipPath id="C"><path d="M350.194 726.023h3.877v-3.655h-3.877v3.655z"/></clipPath><clipPath id="B"><path d="M350.194 726.023a23.06 23.06 0 0 1 .552-2.731 25.296 25.296 0 0 1 3.325-.924 23.85 23.85 0 0 0-.708 2.687c-1.117.262-2.18.586-3.169.968"/></clipPath><radialGradient cx="0" cy="0" r="1" fx="0" fy="0" id="d" gradientUnits="userSpaceOnUse" gradientTransform="matrix(20.21286 0 0 -20.21286 351.766 741.1)"><stop offset="0" stop-color="#f8fbfb"/><stop offset="1" stop-color="#00706b"/></radialGradient><clipPath id="z"><path d="M-.437-.277h.546v1.13h-.546v-1.13z"/></clipPath><clipPath id="y"><path d="M342.925 746.701h11.041v-22.832h-11.041v22.832z"/></clipPath><clipPath id="x"><path d="M342.925 746.701h11.041v-22.832h-11.041v22.832z"/></clipPath><clipPath id="w"><path d="M349.291 723.869a21.82 21.82 0 0 0-.708 2.85c-1.754.856-3.233 1.902-4.325 3.091 1.175-.887 2.596-1.656 4.196-2.281a25.373 25.373 0 0 0-.166 5.601c.441 5.616 2.621 10.491 5.678 13.571-6.441-2.353-11.041-8.538-11.041-15.794 0-.704.046-1.393.129-2.073 1.195-1.997 3.392-3.719 6.237-4.965"/></clipPath><radialGradient cx="0" cy="0" r="1" fx="0" fy="0" id="c" gradientUnits="userSpaceOnUse" gradientTransform="matrix(20.21216 0 0 -20.21216 351.767 741.1)"><stop offset="0" stop-color="#f8fbfb"/><stop offset="1" stop-color="#00706b"/></radialGradient><clipPath id="u"><path d="M.186.518h1.04v.79H.186v-.79z"/></clipPath><clipPath id="t"><path d="M355.525 730.628h21.013V714.65h-21.013v15.978z"/></clipPath><clipPath id="s"><path d="M355.525 730.628h21.013V714.65h-21.013v15.978z"/></clipPath><clipPath id="r"><path d="M360.212 724.313a29.776 29.776 0 0 0-4.687.329 23.26 23.26 0 0 1 1.016-2.675 30.833 30.833 0 0 1 3.576-.206c6.375 0 11.983 1.933 15.2 4.85-2.783-3.727-9.158-6.334-16.581-6.334-.452 0-.895.012-1.336.03 1.737-2.999 4.075-5.066 6.621-5.657 7.121 1.871 12.395 8.298 12.517 15.978-2.813-3.673-9.055-6.259-16.326-6.315"/></clipPath><radialGradient cx="0" cy="0" r="1" fx="0" fy="0" id="b" gradientUnits="userSpaceOnUse" gradientTransform="matrix(20.21374 0 0 -20.21374 351.764 741.1)"><stop offset="0" stop-color="#f8fbfb"/><stop offset="1" stop-color="#00706b"/></radialGradient><clipPath id="p"><path d="M-.093-.326h1.305V.76H-.093V-.326z"/></clipPath><clipPath id="o"><path d="M349.892 747.69h26.375v-21.945h-26.375v21.945z"/></clipPath><clipPath id="n"><path d="M349.892 747.69h26.375v-21.945h-26.375v21.945z"/></clipPath><clipPath id="m"><path d="M349.996 731.512a26.992 26.992 0 0 1 .079-4.548c.979-.3 2.004-.55 3.079-.743a28.618 28.618 0 0 0-.346 4.124c-.079 7.515 2.696 13.88 6.563 15.865-3.383-2.899-5.442-8.928-4.942-15.719.116-1.59.371-3.119.734-4.557a30.865 30.865 0 0 1 3.562-.18c8.533.069 15.658 3.559 17.542 8.197-1.38 7.53-7.768 13.306-15.588 13.739-5.4-.323-10.096-7.313-10.683-16.178"/></clipPath><radialGradient cx="0" cy="0" r="1" fx="0" fy="0" id="a" gradientUnits="userSpaceOnUse" gradientTransform="matrix(20.2013 0 0 -20.2013 351.765 741.099)"><stop offset="0" stop-color="#f8fbfb"/><stop offset="1" stop-color="#00706b"/></radialGradient><clipPath id="k"><path d="M-.376.818h.838v.519h-.838v-.52z"/></clipPath><clipPath id="j"><path d="M344.163 724.576h16.933v-10.479h-16.933v10.479z"/></clipPath><clipPath id="i"><path d="M354.762 720.535c-1.15.151-2.266.363-3.325.636 1.025-2.622 2.521-4.709 4.325-5.952-2.304 1.239-4.228 3.462-5.562 6.307-2.379.746-4.446 1.789-6.037 3.05 2.5-6.145 8.529-10.479 15.575-10.479.458 0 .908.023 1.358.06-2.562.529-4.821 2.914-6.334 6.378"/></clipPath><clipPath id="h"><path d="M122.496 1004.047h566.929V437.118H122.496v566.929z"/></clipPath><clipPath id="g"><path d="M336.966 754.016h201.617v-45.947H336.966v45.947z"/></clipPath><clipPath id="f"><path d="M336.966 754.016h201.617v-45.947H336.966v45.947z"/></clipPath><radialGradient cx="0" cy="0" r="1" fx="0" fy="0" id="l" xlink:href="#a" gradientUnits="userSpaceOnUse" gradientTransform="matrix(20.2013 0 0 -20.2013 351.765 741.099)"/><radialGradient cx="0" cy="0" r="1" fx="0" fy="0" id="q" xlink:href="#b" gradientUnits="userSpaceOnUse" gradientTransform="matrix(20.21374 0 0 -20.21374 351.764 741.1)"/><radialGradient cx="0" cy="0" r="1" fx="0" fy="0" id="v" xlink:href="#c" gradientUnits="userSpaceOnUse" gradientTransform="matrix(20.21216 0 0 -20.21216 351.767 741.1)"/><radialGradient cx="0" cy="0" r="1" fx="0" fy="0" id="A" xlink:href="#d" gradientUnits="userSpaceOnUse" gradientTransform="matrix(20.21286 0 0 -20.21286 351.766 741.1)"/><radialGradient cx="0" cy="0" r="1" fx="0" fy="0" id="E" xlink:href="#e" gradientUnits="userSpaceOnUse" gradientTransform="matrix(20.2107 0 0 -20.2107 351.766 741.097)"/></defs><g clip-path="url(#f)" transform="matrix(1.25 0 0 -1.25 -421.207 942.52)"><g clip-path="url(#g)"><g clip-path="url(#h)"><path d="M342.466 745.616l1.926 1.999 2.166-2.083-1.929-2.001-2.163 2.085zm-.387-.377l2.196-2.114.367-.375.387.399-.046.044 1.926 2.001.07-.067.392.409-.392.353-2.217 2.136-.346.352-.303-.339-2.068-2.149-.333-.32.367-.33zm2.417-1.469l.266.297 1.246 1.293.304.3-.35.336-.226-.255c-.007.112-.015.216-.02.311l-.158-.002-.221-.009a1.282 1.282 0 0 0-.158.003l.25.236-.359.346-.199-.217-.396-.413-.321.31.417.431.292.273-.367.352-.288-.317-1.181-1.228-.285-.277.362-.346.263.294.408.424.321-.308-.325-.342-.283-.276.358-.344.267.293.324.339.437-.423-.441-.46-.287-.285.35-.336zm.758 1.474l-.437.424.221.228c0-.124-.009-.235-.034-.329.208.02.342.027.4.02.062-.007.117-.013.165-.02l-.315-.323zM347.829 749.344l-.1.221-.233.444-.159.285.463.223 1.083.567a2.506 2.506 0 0 1-.321.088c.051.055.09.104.121.15.033.046.101.147.196.308.263-.059.454-.106.579-.142a.602.602 0 0 1-.062-.14l1.162.607.421.236.142-.295.233-.448.125-.222-.517-.27-.108.231-.15.292-2.625-1.373.15-.281.121-.212-.521-.269zm1.867-1.047c.217.321.375.587.474.799a.35.35 0 0 1-.083.066c-.154-.25-.296-.466-.424-.653a6.481 6.481 0 0 0-.625-.712c-.063.049-.118.09-.167.126-.05.035-.155.094-.302.176.147.111.268.216.373.313.099.097.217.23.349.399.134.168.254.347.363.536l-.067.016a9.468 9.468 0 0 0-.375-.4c-.091-.086-.237-.22-.441-.405-.055.044-.101.084-.147.117a3.435 3.435 0 0 1-.333.193c.125.082.292.199.497.349.208.152.437.406.691.76l-.596-.31-.342-.192-.229.434.354.172 1.697.879.383.214.225-.434-.396-.194-.596-.31c.071-.014.145-.027.229-.036-.104-.16-.204-.312-.295-.457.17-.026.281-.05.325-.075l.133-.067c.204.379.316.607.345.687l.105.292c.062-.028.125-.048.175-.064.049-.016.191-.038.42-.07a43.522 43.522 0 0 1-.325-.58c.068-.069.176-.167.318-.293.145-.127.34-.22.59-.275.247-.055.493-.071.737-.048a2.711 2.711 0 0 1-.112-.625c-.345.023-.616.068-.803.136a2.086 2.086 0 0 0-.509.253c-.146.1-.313.239-.491.416l-.105-.156.125-.18c.038-.056.096-.165.184-.327.086-.161.141-.298.175-.413a.6.6 0 0 0-.017-.361c-.041-.127-.221-.276-.541-.448-.13.156-.217.25-.263.285l-.171.137c.229.075.363.146.392.209.033.065.033.139.004.226a2.398 2.398 0 0 1-.087.2l-.025.049a7.395 7.395 0 0 0-.375-.608 5.31 5.31 0 0 0-.43-.547l-.429-.474a1.8 1.8 0 0 1-.283.191l-.217.111c.408.328.721.652.938.973M356.571 751.871l.983.151.079-.516-.981-.152-.081.517zm-.155 1.011l.984.153.079-.527-.983-.151-.08.525zm-1.257-1.229l.866.132.079-.516-.866-.133-.079.517zm-.73 1.052l.271-1.754.058-.471.571.088-.012.068.862.132.1-.662c.021-.104.042-.186.071-.246a.357.357 0 0 1 .188-.144c.095-.037.229-.043.406-.016.173.026.402.057.68.094.289.036.505.066.643.097a1.1 1.1 0 0 1 .308.101.575.575 0 0 1 .171.17c.049.077.095.278.137.604a2.94 2.94 0 0 0-.583.181v-.183c0-.12-.021-.207-.075-.263a.407.407 0 0 0-.208-.116 3.496 3.496 0 0 0-.455-.077l-.5-.065c-.108-.012-.175-.003-.208.025a.185.185 0 0 0-.054.101l-.071.486.983.151.013-.085.566.087-.079.448-.275 1.79-.05.403-.362-.073-1.188-.183-.042.258-.046.365-.57-.089.067-.361.042-.257-1.004-.154-.43-.05.075-.4zm.575-.042l.863.134.079-.525-.863-.133-.079.524zM361.712 750.004l.092.602.098.554a3.15 3.15 0 0 0 .273-.454c.204.196.329.328.383.396.053.067.101.127.138.178l.037-.134c.009-.025.013-.089.025-.195l.121.081c.075.048.204.104.388.169-.075.237-.154.464-.229.679l.07.147c.025.051.075.168.15.348.113-.203.187-.332.213-.385.025-.054.07-.176.129-.365l-.104-.181a2.643 2.643 0 0 0-.267-.369 2.361 2.361 0 0 0-.429-.357c.137-.111.229-.19.267-.235.041-.047.087-.101.133-.163.104.079.183.151.246.216.066.066.2.221.404.466l.079-.269c.004-.027.021-.107.046-.244.179.132.346.238.491.315l-.05.163c-.007.011-.087.223-.237.632l.109.275c.041.102.095.239.154.411l.087.268c.009.031.025.075.046.133a4.633 4.633 0 0 0-.546.172l-.03-.144a2.425 2.425 0 0 0-.125-.444 7.494 7.494 0 0 1-.162.331l-.112-.068a1.204 1.204 0 0 0-.325-.124l.088.231c.004.005.016.041.041.112.021.071.042.13.058.177a2.71 2.71 0 0 0-.533.196l-.037-.184c-.021-.079-.038-.152-.059-.219-.025-.066-.049-.138-.075-.214a6.18 6.18 0 0 0-.179.39 2.032 2.032 0 0 0-.271-.14c-.05-.014-.096-.027-.142-.038l.109.625 2.562-.439-.458-2.679a.266.266 0 0 0-.054-.122c-.025-.027-.096-.029-.208-.007a2.359 2.359 0 0 0-.296.08l.042-.158c.041-.151.057-.263.053-.338-.003-.073-.003-.132-.007-.176.291-.031.507-.036.645-.012.133.025.223.075.258.153a.84.84 0 0 1 .075.259l.496 2.886.109.553-.546.077-2.613.449-.554.109-.083-.556-.463-2.719-.116-.597.595-.104zm.44 2.623l.086-.177c.024-.05.099-.228.228-.534a1.819 1.819 0 0 0-.258-.402 2.613 2.613 0 0 0-.295-.283l.239 1.396zM370.979 751.244c.154-.116.333-.223.533-.32a1.524 1.524 0 0 1-.166-.332 2.756 2.756 0 0 1-.079-.414 1.312 1.312 0 0 1 .045-.56 2.476 2.476 0 0 1 .292-.615c.046-.059.134-.152.267-.277-.063-.026-.117-.054-.175-.081a3.862 3.862 0 0 1-.417-.276c-.166.222-.293.45-.392.685a2.599 2.599 0 0 0-.171.647 2.86 2.86 0 0 0 .005.564c.021.179.041.323.074.434.03.109.088.292.184.545m-2.929-2.05c.092.017.217.053.37.109.155.056.317.122.484.2.167.077.334.174.5.289.167.115.271.192.317.232l.091.084c.104-.214.222-.415.354-.606-.091-.043-.158-.076-.204-.095l-.362-.178a10.852 10.852 0 0 0-.521-.227 7.245 7.245 0 0 0-.637-.213c.52-.264 1.037-.519 1.546-.768-.026.246-.042.407-.055.479l-.062.297c.241-.027.396-.035.47-.02l.121.018c.096-.691.167-1.254.208-1.686l-.495-.071-.167-.044.013.188c0 .053-.004.157-.013.311-.262.123-.637.292-1.125.505-.491.211-.792.341-.908.385-.112.045-.25.087-.404.126.05.226.071.389.062.487l-.009.163c.195.006.334.019.426.035m.063.968c-.038.254-.072.425-.109.514l-.054.142c.196-.022.424 0 .683.067.263.067.509.156.741.268.23.111.434.245.614.398l.103.094a2.65 2.65 0 0 1 .384-.51c-.292-.174-.538-.317-.737-.433a3.891 3.891 0 0 0-.776-.315 8.954 8.954 0 0 0-.849-.225M373.988 746.334l-.579-.541-.342-.29.325-.326.941-1.012.33-.379.316.32.579.541.316.268-.349.357-.946 1.013-.3.346-.291-.297zm1.449.89l1.788-1.919-2.062-1.92c-.063-.059-.113-.089-.151-.092-.033-.003-.083.031-.149.096a2.241 2.241 0 0 0-.117.128c-.05.061-.1.12-.146.173l-.071-.168a1.188 1.188 0 0 0-.125-.23c-.05-.06-.092-.115-.137-.165.271-.254.471-.402.591-.447.121-.045.209-.061.263-.044a.842.842 0 0 1 .229.168l2.287 2.128.362.317-.362.367-1.825 1.959-.396.451-.399-.374.42-.428zm.863-1.564l-1.325 1.423-.342.392-.395-.369.366-.367 1.325-1.423.379-.43.396.365-.404.409zm-2.471-.214l.45.422.834-.892-.454-.42-.83.89zM341.621 738.648l.128-.122-.112-.249-.974.173.016.322c.237.007.445.058.616.152a.843.843 0 0 1 .375.38.492.492 0 0 1 .046.33.282.282 0 0 1-.171.207c-.143.069-.379-.095-.691-.485-.046-.058-.083-.099-.108-.127-.229-.278-.438-.447-.625-.51-.188-.062-.4-.038-.633.069-.309.142-.522.348-.625.619-.105.271-.085.557.05.858a1.527 1.527 0 0 0 .549.637l-.162.129.109.24 1.233-.19-.021-.358a1.827 1.827 0 0 1-.809-.152.942.942 0 0 1-.466-.445.587.587 0 0 1-.038-.39.373.373 0 0 1 .204-.261c.154-.07.375.06.658.394l.088.106c.138.163.254.29.346.382a.948.948 0 0 0 .221.181.803.803 0 0 0 .379.094.982.982 0 0 0 .407-.093c.263-.123.447-.312.543-.569a1.025 1.025 0 0 0-.046-.797 1.161 1.161 0 0 0-.199-.3 1.208 1.208 0 0 0-.288-.225M341.36 737.666l-.69-2.288-1.037-.032-.037.303c.267.037.466.1.6.19.133.092.22.226.279.404l.013.042-1.713.518c-.241.071-.401.096-.48.071-.079-.026-.141-.101-.182-.225l-.377.114.414 1.374.379-.114c-.033-.13-.03-.23.021-.293.05-.066.196-.135.442-.208l1.708-.517.016.044a.73.73 0 0 1-.008.494c-.056.149-.191.313-.391.491l.195.229.848-.597zM338.354 735.36l-.05.03c-.276.153-.417.332-.417.537l-.391.062-.188-1.192.384-.06c.02.118.054.198.096.24.041.039.099.053.183.04.012-.001.025-.005.041-.009.017-.006.029-.012.046-.016l.421-.192-.138-.875-.458-.079a.471.471 0 0 0-.141.001c-.067.01-.113.038-.134.085-.021.045-.025.118-.008.219l.004.034-.383.059-.217-1.387.392-.062c.048.163.204.27.471.319l.02.001 2.476.427.099.654-2.108 1.164zm.404-1.351l.088.577.866-.451-.954-.126zM340.212 732.466l-.042-2.389-.991-.313-.117.281c.246.11.424.225.525.348.1.123.155.276.159.464v.045l-1.788.033c-.25.004-.413-.017-.479-.062-.07-.047-.108-.134-.116-.267l-.397.008.026 1.435.395-.007c.005-.135.038-.228.105-.277.066-.049.224-.076.479-.08l1.787-.032v.045a.72.72 0 0 1-.141.473c-.096.128-.267.248-.509.365l.128.274.976-.344zM340.163 729.866l.303-2.382-.908-.509-.187.243c.225.185.383.376.483.573.096.198.133.407.1.623-.012.126-.05.209-.1.246-.054.039-.171.046-.342.023l-.454-.057.017-.139c.021-.15.062-.245.133-.289.071-.043.205-.057.409-.042l.037-.304-1.442-.183-.037.302c.188.044.321.104.4.177.075.072.104.167.091.286l-.02.139-.742-.095c-.168-.023-.28-.059-.321-.11-.042-.053-.055-.142-.038-.27.026-.219.13-.423.313-.614s.421-.345.713-.462l-.129-.298-1.151.294-.312 2.439.392.05c.021-.132.066-.216.137-.254.071-.036.238-.039.491-.006l1.226.157c.254.033.417.077.475.131.062.054.084.147.071.28l.392.051zM341.42 723.804l.151-.016.092-.259-.938-.617-.246.27c.229.227.384.429.458.606.08.175.09.348.025.514-.07.211-.229.339-.47.38-.243.045-.548-.001-.922-.134-.374-.132-.637-.286-.791-.466-.155-.18-.196-.373-.12-.585a.582.582 0 0 1 .283-.351.514.514 0 0 1 .429-.017c.108.039.179.093.208.163.032.068.025.167-.012.292l.353.126.454-1.274-.357-.127c-.071.114-.146.181-.217.203-.071.021-.188.002-.35-.055l-.8-.285-.146.408.208.199a1.35 1.35 0 0 0-.345.298 1.39 1.39 0 0 0-.217.406 1.12 1.12 0 0 0 .121 1.056c.217.331.566.583 1.058.756.455.162.875.164 1.258.006.379-.158.642-.437.784-.839a.977.977 0 0 0 .066-.309 1.272 1.272 0 0 0-.017-.349M341.496 722.702c.062-.124.075-.221.042-.294-.039-.073-.167-.172-.392-.295l-1.088-.593c-.225-.119-.375-.177-.454-.167-.083.01-.158.072-.23.19l-.345-.189.692-1.27.346.192c-.063.123-.075.22-.038.295.038.072.167.169.387.291l.355.192.138-.255-.776-1.472.442-.813.341.185a.636.636 0 0 0-.056.271.757.757 0 0 0 .086.293l.425.896c.17-.166.341-.265.516-.294a.85.85 0 0 1 .55.115c.259.14.404.332.437.575.035.24-.049.537-.237.886l-.791 1.45-.35-.189zm.174-1.156c.15.079.255.113.322.095.062-.016.129-.083.195-.204.097-.171.132-.328.108-.468a.436.436 0 0 0-.237-.322.418.418 0 0 0-.429-.007c-.137.077-.275.235-.404.477-.021.04-.038.069-.046.09a.21.21 0 0 0-.026.055l.517.284zM343.402 720.149l.844-1.19-.321-.23c-.084.112-.167.166-.255.166-.083 0-.225-.072-.432-.218l-1.009-.718c-.201-.146-.32-.258-.346-.338-.029-.079-.004-.176.071-.294l-.321-.23-.845 1.191.32.229c.086-.108.171-.164.255-.164.083 0 .228.074.432.218l1.009.716c.204.147.32.261.35.34.025.078 0 .177-.075.294l.323.228zM343.95 718.617c.088-.099.121-.185.104-.262-.016-.077-.125-.203-.317-.381l-.912-.83c-.196-.177-.329-.271-.409-.28-.079-.01-.162.032-.25.124l-.295-.266.954-1.049c.362-.399.746-.612 1.141-.639.397-.024.788.137 1.171.487.384.35.579.724.592 1.122.013.397-.167.794-.529 1.194l-.954 1.048-.296-.268zm.433-1.07c.129.121.229.179.287.179.063 0 .138-.047.222-.139a.794.794 0 0 0 .208-.704c-.055-.262-.217-.523-.496-.776-.279-.255-.554-.394-.82-.421a.783.783 0 0 0-.68.272c-.083.093-.125.168-.121.229.005.061.071.152.204.271l1.196 1.089zM349.104 714.331l.15.13.19-.13-.369-1.19-.308.087c.066.287.074.545.021.773-.05.226-.151.394-.302.5-.198.137-.415.153-.661.052-.246-.101-.475-.31-.692-.623-.217-.313-.329-.603-.333-.868 0-.264.104-.47.321-.618a.892.892 0 0 1 .549-.145c.217.004.434.063.651.174l.196-.343c-.321-.19-.625-.285-.917-.287a1.402 1.402 0 0 0-.833.274c-.38.261-.592.598-.646 1.013-.052.412.066.828.358 1.252.279.396.621.644 1.029.74a1.383 1.383 0 0 0 1.396-.461c.071-.092.137-.202.2-.33M350.071 713.436c-.392-.154-.697-.459-.912-.911-.217-.452-.263-.88-.138-1.283.129-.403.399-.706.82-.907.417-.201.825-.225 1.217-.072.396.154.704.458.921.909.217.455.263.883.138 1.286-.129.402-.405.705-.822.905-.424.203-.829.227-1.224.073m1.404-.98c.024-.259-.055-.569-.226-.932-.174-.36-.366-.614-.583-.757-.216-.143-.43-.164-.645-.06a.609.609 0 0 0-.358.54c-.026.258.049.568.224.931.175.363.371.618.584.76.216.144.433.165.65.061.212-.102.329-.284.354-.543M352.67 712.199c.13-.044.209-.103.239-.182.024-.077 0-.239-.072-.485l-.349-1.188c-.072-.244-.138-.39-.2-.44-.063-.052-.164-.059-.296-.026l-.113-.381 1.388-.406.107.38c-.128.043-.208.104-.232.181-.025.079-.005.237.066.48l.113.386.279-.081.496-1.589.887-.26.108.37a.682.682 0 0 0-.228.151.75.75 0 0 0-.151.267l-.333.933c.242.003.429.058.575.16a.858.858 0 0 1 .308.471c.079.282.05.519-.099.714-.151.194-.414.348-.796.459l-1.583.466-.114-.38zm.943-.695c.046.162.099.26.154.295.062.035.153.033.287-.005.188-.056.32-.141.404-.256a.443.443 0 0 0 .063-.396.42.42 0 0 0-.3-.308c-.15-.043-.358-.026-.621.052-.042.011-.075.022-.096.028a1.46 1.46 0 0 1-.058.02l.167.57zM355.767 711.32c.129-.022.208-.066.245-.138.038-.068.038-.235 0-.497l-.162-1.219c-.038-.26-.083-.419-.134-.477-.053-.057-.145-.081-.274-.066l-.055-.394 1.401-.189.049.393c-.125.022-.208.068-.246.141-.033.072-.033.237 0 .491l.046.328.496-.067c.355-.049.629-.007.825.121.196.129.317.346.359.649.041.316-.022.567-.184.755-.162.187-.429.304-.796.354l-1.516.206-.054-.391zm1.017-.547c.024.167.053.274.099.318.042.045.116.06.225.046a.523.523 0 0 0 .367-.195c.079-.108.104-.246.083-.412-.024-.182-.096-.313-.221-.391-.125-.078-.292-.101-.508-.073l-.083.013c-.021.004-.038.007-.052.011l.09.683zM358.95 710.952c-.284-.313-.421-.723-.412-1.224.007-.503.162-.903.454-1.207.296-.304.674-.452 1.141-.443.463.009.838.17 1.121.482.284.316.421.724.412 1.225-.007.504-.162.906-.454 1.208-.296.305-.674.451-1.141.444-.467-.009-.842-.171-1.121-.485m1.692-.245c.137-.221.208-.531.216-.935.005-.401-.054-.714-.183-.938-.125-.225-.312-.34-.551-.344-.241-.005-.424.104-.562.321-.137.222-.208.532-.216.934-.009.402.057.718.183.942.13.226.308.339.55.344.238.005.42-.102.563-.324M361.821 711.014c.137.021.233.001.292-.055.057-.058.112-.212.158-.465l.225-1.218c.045-.248.049-.409.016-.482-.033-.075-.116-.127-.25-.158l.071-.391 1.421.264-.071.39c-.138-.021-.233-.004-.291.055-.059.058-.113.21-.154.46l-.075.396.283.053 1.158-1.196.913.167-.071.381a.67.67 0 0 0-.276.031.725.725 0 0 0-.25.17l-.72.683c.209.112.358.245.437.402a.82.82 0 0 1 .063.558c-.05.289-.188.488-.409.594-.22.106-.524.123-.917.051l-1.625-.3.072-.39zm1.154-.195c-.029.166-.029.277.008.333.038.058.121.1.255.124.191.035.353.02.478-.045a.431.431 0 0 0 .234-.324.424.424 0 0 0-.129-.411c-.117-.107-.309-.186-.575-.235-.046-.007-.08-.015-.104-.016-.021-.005-.042-.007-.059-.01l-.108.584zM365.929 709.972v-.063c-.004-.315-.096-.522-.276-.619l.131-.376 1.136.4-.129.367c-.112-.038-.2-.047-.253-.031-.055.02-.096.066-.122.143-.007.011-.007.025-.012.041-.002.015-.008.033-.012.052l-.029.458.837.293.288-.366c.011-.017.024-.036.033-.055.013-.02.02-.044.033-.071.021-.063.017-.114-.013-.156-.029-.04-.091-.078-.187-.111l-.033-.013.129-.366 1.325.468-.133.374c-.167-.035-.334.052-.505.265l-.008.016-1.55 1.976-.625-.22-.025-2.406zm1 .991l-.55-.195-.012.976.562-.781zM367.646 712.999l2.125 1.096.746-.723-.196-.236c-.208.166-.396.264-.55.295a.715.715 0 0 1-.487-.081l-.038-.019.821-1.59c.116-.223.211-.354.283-.393.07-.04.167-.03.287.025l.184-.35-1.28-.661-.178.352c.116.067.182.141.195.221.013.08-.041.235-.158.462l-.821 1.589-.041-.02a.736.736 0 0 1-.351-.35c-.066-.146-.091-.354-.075-.623l-.304-.021-.162 1.027zM370.021 714.273l1.217.814.22-.328c-.117-.083-.17-.166-.174-.25 0-.084.07-.231.208-.441l.687-1.026c.142-.21.25-.329.329-.358.075-.031.175-.008.296.064l.223-.329-1.219-.814-.217.329c.109.083.167.166.171.251 0 .082-.066.229-.208.439l-.687 1.027c-.138.21-.25.329-.326.358-.079.029-.178.007-.295-.064l-.225.328zM371.962 715.12c-.016-.422.142-.822.471-1.201.329-.379.704-.591 1.125-.635.421-.045.805.086 1.158.393.351.303.533.667.551 1.089.017.424-.143.826-.472 1.205-.329.378-.704.59-1.125.634-.421.043-.807-.089-1.158-.391-.349-.307-.533-.67-.55-1.094m1.454.898c.247-.081.504-.274.767-.577.263-.302.417-.581.463-.837.048-.255-.022-.461-.2-.616-.184-.158-.396-.194-.638-.114-.246.08-.5.273-.767.577-.262.305-.417.583-.462.839a.611.611 0 0 0 .2.617c.179.155.391.192.637.111M373.804 717.252l.787.949 2.055-.405-.658.549c-.197.164-.334.249-.417.256-.079.008-.167-.036-.259-.135l-.295.245.695.831.3-.255c-.083-.106-.112-.2-.092-.279.022-.079.13-.201.326-.366l1.708-1.422-.337-.405-2.767.532 1.142-.953c.2-.162.333-.247.417-.254.083-.006.166.038.257.136l.296-.247-.691-.831-.305.252c.084.111.113.205.092.284-.02.078-.129.2-.325.363l-.945.788c-.201.164-.338.249-.417.255-.087.01-.171-.039-.263-.142l-.304.254zM376.954 720.801c.146-.399.442-.711.887-.938.447-.227.875-.284 1.28-.169.408.115.716.382.929.797.208.412.245.817.102 1.216-.144.399-.44.712-.885.941-.447.23-.875.284-1.281.168-.407-.117-.715-.382-.928-.797-.212-.415-.246-.821-.104-1.218m1.017 1.376c.258.018.567-.065.925-.249.353-.181.603-.383.741-.602.14-.22.154-.435.046-.647-.112-.214-.291-.329-.55-.345-.259-.017-.566.066-.925.249-.358.184-.608.386-.746.604-.137.22-.154.434-.046.647.112.212.292.326.555.343M377.841 723.428l.776 2.31 1.007.105.051-.289a1.63 1.63 0 0 1-.637-.311 1.145 1.145 0 0 1-.355-.525c-.046-.137-.054-.237-.02-.3.031-.065.128-.123.295-.179l.421-.143.046.128c.05.161.054.282.012.362-.045.079-.158.155-.341.224l.087.259 1.408-.473-.087-.259c-.183.042-.329.04-.433-.001-.109-.04-.184-.125-.225-.256l-.042-.125.504-.17c.237-.079.396-.107.476-.08.083.026.145.105.199.237l.375-.125-.475-1.409-.375.126c.042.136.037.239-.012.308-.046.068-.192.144-.429.224l-1.175.393c-.238.079-.396.108-.476.082-.079-.024-.141-.103-.2-.238l-.375.125zM379.363 729.256l-.188.074.029.228 1.225.23.067-.315a1.75 1.75 0 0 1-.696-.339c-.176-.151-.275-.318-.301-.504-.028-.238.059-.441.263-.608.204-.169.492-.276.871-.321.379-.048.688-.011.921.112.237.121.371.31.4.569a.864.864 0 0 1-.125.552 1.495 1.495 0 0 1-.458.496l.212.332c.319-.195.546-.42.684-.676a1.44 1.44 0 0 0 .146-.866c-.059-.456-.259-.803-.601-1.042-.337-.239-.762-.328-1.271-.265-.483.058-.862.247-1.137.565a1.38 1.38 0 0 0-.241 1.447c.049.109.116.219.2.331M379.333 729.996l-.054 1.435.38.015c.007-.132.049-.221.12-.264.075-.043.238-.06.492-.051l.325.013-.046 1.097-.321-.013c-.258-.01-.421-.039-.487-.088-.067-.048-.1-.141-.1-.273l-.38-.014-.054 1.435.392.016c.013-.138.053-.228.116-.271.072-.046.234-.064.496-.053l1.234.046c.254.012.414.04.479.09.063.05.096.144.092.281l.399.013.055-1.433-.384-.016c-.008.133-.046.221-.116.265-.067.043-.233.062-.492.051l-.533-.021.046-1.097.535.02c.252.011.417.04.481.089.067.049.096.141.096.273l.384.014.053-1.435-.395-.015c-.013.135-.05.225-.117.271-.071.045-.229.064-.488.052l-1.229-.047c-.258-.01-.42-.039-.487-.091-.067-.048-.096-.142-.096-.278l-.396-.016zM379.146 733.326l-.237 1.442.391.063c.029-.137.079-.222.154-.258.075-.038.24-.037.488.005l1.217.201c.25.04.403.089.462.148.062.06.079.157.066.296l.392.065.238-1.442-.392-.063c-.029.134-.084.222-.158.258-.073.037-.238.036-.483-.005l-1.222-.201c-.25-.04-.403-.091-.462-.148-.059-.06-.079-.158-.062-.298l-.392-.063zM378.942 734.827l-.342 1.187 1.491 1.469-.824-.237c-.246-.069-.396-.134-.446-.197-.054-.063-.063-.16-.033-.29l-.368-.105-.299 1.039.383.109c.041-.13.1-.207.179-.234.075-.029.237-.007.487.063l2.134.61.146-.51-2.004-1.986 1.433.41c.245.069.396.135.446.199.054.061.067.159.033.289l.371.105.3-1.04-.383-.108c-.042.13-.105.21-.184.236-.075.027-.237.004-.483-.066l-1.184-.337c-.241-.071-.391-.138-.445-.2-.055-.065-.062-.163-.029-.296l-.379-.11zM380.041 738.928c.017 0 .034.002.063.005.312.024.525-.05.642-.222l.362.165-.5 1.099-.354-.161c.05-.112.067-.196.054-.251-.013-.057-.059-.102-.133-.137a.293.293 0 0 0-.038-.014l-.05-.014-.454-.071-.366.807.337.319a.25.25 0 0 0 .055.04.36.36 0 0 0 .066.039c.063.026.112.028.158.002a.427.427 0 0 0 .125-.179l.017-.032.354.16-.584 1.28-.362-.165c.054-.162-.02-.338-.217-.523l-.016-.013-1.833-1.72.275-.601 2.399.187zm-1.075.909l.242-.531-.97-.1.728.631z" fill="#00706b"/><g clip-path="url(#i)"><g clip-path="url(#j)"><path d="M344.163 724.576h16.933v-10.479h-16.933v10.479z" fill="#00706b"/><g clip-path="url(#k)"><path d="M344.163 724.576h16.933v-10.479h-16.933v10.479z" fill="url(#l);stroke:none"/></g></g></g><g clip-path="url(#m)"><g clip-path="url(#n)"><path d="M349.892 747.69h26.375v-21.945h-26.375v21.945z" fill="#00706b"/><g clip-path="url(#o)"><g clip-path="url(#p)"><path d="M349.892 747.69h26.375v-21.945h-26.375v21.945z" fill="url(#q);stroke:none"/></g></g></g></g><g clip-path="url(#r)"><g clip-path="url(#s)"><path d="M355.525 730.628h21.013V714.65h-21.013v15.978z" fill="#00706b"/><g clip-path="url(#t)"><g clip-path="url(#u)"><path d="M355.525 730.628h21.013V714.65h-21.013v15.978z" fill="url(#v);stroke:none"/></g></g></g></g><g clip-path="url(#w)"><g clip-path="url(#x)"><path d="M342.925 746.701h11.041v-22.832h-11.041v22.832z" fill="#00706b"/><g clip-path="url(#y)"><g clip-path="url(#z)"><path d="M342.925 746.701h11.041v-22.832h-11.041v22.832z" fill="url(#A);stroke:none"/></g></g></g></g><g clip-path="url(#B)"><g clip-path="url(#C)"><path d="M350.194 726.023h3.877v-3.655h-3.877v3.655z" fill="#00706b"/><g clip-path="url(#D)"><path d="M350.194 726.023h3.877v-3.655h-3.877v3.655z" fill="url(#E);stroke:none"/></g></g></g><path d="M341.896 730.907c0 9.837 8.004 17.839 17.842 17.839 9.833 0 17.837-8.002 17.837-17.839 0-9.837-8.004-17.839-17.837-17.839-9.838 0-17.842 8.002-17.842 17.839m-.267 0c0-9.983 8.125-18.103 18.109-18.103 9.978 0 18.099 8.12 18.099 18.103 0 9.983-8.121 18.104-18.099 18.104-9.984 0-18.109-8.121-18.109-18.104" fill="#00706b"/></g></g></g></svg>